<svg xmlns="http://www.w3.org/2000/svg" viewBox="0 0 423.2 441.56"><title>classic-seo</title><rect x="4.15" y="385.05" width="58" height="56.38" style="fill:#fff;stroke:#757575;stroke-miterlimit:10;stroke-opacity:0.41000000000000003;stroke-width:0.25px"/><rect x="92.77" y="366.11" width="58" height="75.32" style="fill:#fff;stroke:#757575;stroke-miterlimit:10;stroke-opacity:0.41000000000000003;stroke-width:0.25px"/><rect x="181.4" y="318.89" width="58" height="122.55" style="fill:#fff;stroke:#757575;stroke-miterlimit:10;stroke-opacity:0.41000000000000003;stroke-width:0.25px"/><rect x="271.19" y="247.42" width="58" height="194.01" style="fill:#fff;stroke:#757575;stroke-miterlimit:10;stroke-opacity:0.41000000000000003;stroke-width:0.25px"/><rect x="361.98" y="103.99" width="58" height="337.44" style="fill:#fff;stroke:#757575;stroke-miterlimit:10;stroke-opacity:0.41000000000000003;stroke-width:0.25px"/><rect x="0.13" y="42.62" width="213.26" height="23.32" style="fill:#fff"/><rect x="0.13" y="42.62" width="213.26" height="23.32" style="fill:#fff"/><g style="opacity:0.4"><rect x="0.13" y="42.62" width="213.26" height="23.32" style="fill:none;stroke:#777;stroke-width:0.25px"/></g><rect x="0.13" y="94.89" width="167.3" height="21.99" style="fill:#fff"/><rect x="0.13" y="94.89" width="167.3" height="21.99" style="fill:#fff"/><g style="opacity:0.4"><rect x="0.13" y="94.89" width="167.3" height="21.99" style="fill:none;stroke:#777;stroke-width:0.25px"/></g><rect x="0.13" y="145.81" width="119.58" height="21.16" style="fill:#fff"/><rect x="0.13" y="145.81" width="119.58" height="21.16" style="fill:#fff"/><g style="opacity:0.4"><rect x="0.13" y="145.81" width="119.58" height="21.16" style="fill:none;stroke:#777;stroke-width:0.25px"/></g><rect x="0.13" y="199.95" width="72" height="20.08" style="fill:#fff"/><rect x="0.13" y="199.95" width="72" height="20.08" style="fill:#fff"/><g style="opacity:0.4"><rect x="0.13" y="199.95" width="72" height="20.08" style="fill:none;stroke:#777;stroke-width:0.25px"/></g><path d="M445.94,83.6,412.58,16.12a7.63,7.63,0,0,0-10.33-3.52h0L329.44,50c-3.81,1.94-9.61,8.07-7.39,13.35,2.32,5.49,10.73,5.08,14.54,3.14l51.27-25.3L366.92,84.68C295.21,252.1,201.24,331.29,28.36,345.94v19.44c185.25-7.07,290.92-113.13,357.83-271.21l19.53-47.12,26.4,43.81c1.9,3.88,7.94,6.29,11.79,4C448.21,92.47,447.84,87.49,445.94,83.6Z" transform="translate(-24.22 -11.65)" style="fill:#fff"/><path d="M445.94,83.6,412.58,16.12a7.63,7.63,0,0,0-10.33-3.52h0L329.44,50c-3.81,1.94-9.61,8.07-7.39,13.35,2.32,5.49,10.73,5.08,14.54,3.14l51.27-25.3L366.92,84.68C295.21,252.1,201.24,331.29,28.36,345.94v19.44c185.25-7.07,290.92-113.13,357.83-271.21l19.53-47.12,26.4,43.81c1.9,3.88,7.94,6.29,11.79,4C448.21,92.47,447.84,87.49,445.94,83.6Z" transform="translate(-24.22 -11.65)" style="fill:#fff"/><g style="opacity:0.4"><path d="M445.94,83.6,412.58,16.12a7.63,7.63,0,0,0-10.33-3.52h0L329.44,50c-3.81,1.94-9.61,8.07-7.39,13.35,2.32,5.49,10.73,5.08,14.54,3.14l51.27-25.3L366.92,84.68C295.21,252.1,201.24,331.29,28.36,345.94v19.44c185.25-7.07,290.92-113.13,357.83-271.21l19.53-47.12,26.4,43.81c1.9,3.88,7.94,6.29,11.79,4C448.21,92.47,447.84,87.49,445.94,83.6Z" transform="translate(-24.22 -11.65)" style="fill:none;stroke:#777;stroke-width:0.25px"/></g></svg>