<?xml version="1.0" encoding="utf-8"?>
<svg viewBox="0 0 46.29 46.29" xmlns="http://www.w3.org/2000/svg" width="20"><g fill="#fff"><path d="M46.13.44h0A1,1,0,0,0,45.27,0C39.4.31,30,3.77,29.56,3.92a.94.94,0,0,0-.53.47L27.7,7.05l-1-1a1,1,0,0,0-1.13-.17c-1.12.58-6.8,3.59-8,5.06A12.07,12.07,0,0,0,16,15.32L15.33,14a1,1,0,0,0-.68-.52.93.93,0,0,0-.82.22c-.34.3-7.43,6.68-5.95,14.63A59.31,59.31,0,0,1,31.51,8a1,1,0,0,1,1.29.44,1,1,0,0,1-.44,1.29h0c-.65.32-1.28.65-1.9,1L30,11c-.48.25-.95.51-1.4.78l-.45.25q-1.77,1-3.39,2.13l-.26.18c-.47.32-.93.65-1.38,1l-.24.17C12.36,23.22,6.79,33.06.13,44.85a1,1,0,0,0,.36,1.31.9.9,0,0,0,.47.13H1a1,1,0,0,0,.84-.49c2.66-4.7,5.14-9.08,7.83-13.13a5.48,5.48,0,0,0,4.48,2c7.29,0,19.33-10.67,20.55-14.11a.94.94,0,0,0-.06-.77,1,1,0,0,0-.62-.48l-3.21-.81,7-1.16a1,1,0,0,0,.7-.52L46.18,1.4a.94.94,0,0,0,0-1"/></g></svg>